# xmcd
#
# Track frame offsets: 
#        150
#        13249
#        26573
#        39672
#        50746
#        63770
#        78819
#        92968
#        105617
#        119841
#        133090
#        146639
#        158088
#        170662
#        184811
#        197985
#        211834
#
# Disc length: 2998 seconds
#
# Revision: 0
# Processed by: cddbd v1.5.2PL0 Copyright (c) Steve Scherf et al.
# Submitted via: ExactAudioCopy v1.0b4
#
DISCID=f80bb411
DTITLE=Muddy Waters - Original Hits and Rarities 1941-1961 I Feel So Goo
DTITLE=d
DYEAR=1900
DGENRE=Blues
TTITLE0=Forty Days And Forty Nights
TTITLE1=Don't Go No Farther
TTITLE2=Got My Mojo Working
TTITLE3=Diamonds At You Feet
TTITLE4=I Love The Life I live
TTITLE5=She's Nineteen Years
TTITLE6=Close To you
TTITLE7=Walking Thru The Park
TTITLE8=Take The Bitter with The Sweet
TTITLE9=I Feel so good
TTITLE10=Baby, I Done Got Wise
TTITLE11=Just A Dream
TTITLE12=Double Trouble
TTITLE13=When I Got to Thinking
TTITLE14=Mopper's Blues
TTITLE15=Lonesome Road blues
TTITLE16=Southbound Train
EXTD=
EXTT0=
EXTT1=
EXTT2=
EXTT3=
EXTT4=
EXTT5=
EXTT6=
EXTT7=
EXTT8=
EXTT9=
EXTT10=
EXTT11=
EXTT12=
EXTT13=
EXTT14=
EXTT15=
EXTT16=
PLAYORDER=
